<?xml version="1.0" encoding="UTF-8" standalone="no"?>
<!-- Generator: Adobe Illustrator 16.0.0, SVG Export Plug-In . SVG Version: 6.00 Build 0)  -->

<svg
   xmlns:dc="http://purl.org/dc/elements/1.1/"
   xmlns:cc="http://creativecommons.org/ns#"
   xmlns:rdf="http://www.w3.org/1999/02/22-rdf-syntax-ns#"
   xmlns:svg="http://www.w3.org/2000/svg"
   xmlns="http://www.w3.org/2000/svg"
   xmlns:sodipodi="http://sodipodi.sourceforge.net/DTD/sodipodi-0.dtd"
   xmlns:inkscape="http://www.inkscape.org/namespaces/inkscape"
   version="1.1"
   id="Layer_1"
   x="0px"
   y="0px"
   width="20px"
   height="20px"
   viewBox="0 0 20 20"
   enable-background="new 0 0 20 20"
   xml:space="preserve"
   inkscape:version="0.48.4 r9939"
   sodipodi:docname="reload.svg"><metadata
     id="metadata12"><rdf:RDF><cc:Work
         rdf:about=""><dc:format>image/svg+xml</dc:format><dc:type
           rdf:resource="http://purl.org/dc/dcmitype/StillImage" /></cc:Work></rdf:RDF></metadata><defs
     id="defs10" /><sodipodi:namedview
     pagecolor="#ffffff"
     bordercolor="#666666"
     borderopacity="1"
     objecttolerance="10"
     gridtolerance="10"
     guidetolerance="10"
     inkscape:pageopacity="0"
     inkscape:pageshadow="2"
     inkscape:window-width="1920"
     inkscape:window-height="1056"
     id="namedview8"
     showgrid="false"
     inkscape:zoom="33.37544"
     inkscape:cx="0.30996558"
     inkscape:cy="8.0654502"
     inkscape:window-x="0"
     inkscape:window-y="24"
     inkscape:window-maximized="1"
     inkscape:current-layer="Layer_1" /><g
     id="_x3C_Repeat_x3E__2_"
     style="fill:#920000;fill-opacity:0.85844749"><path
       fill="#FFFFFF"
       d="M1.022,11.224c-0.308,0-0.555-0.092-0.733-0.274C0.004,10.659,0,10.237,0,10.19   C0.014,4.572,4.509,0,10.02,0c2.378,0,4.695,0.878,6.546,2.477v-1.4c0-0.555,0.443-1.007,0.988-1.007   c0.547,0,0.99,0.452,0.99,1.007v4.022c0,0.555-0.443,1.006-0.99,1.006h-3.939c-0.545,0-0.988-0.451-0.988-1.006   s0.443-1.007,0.988-1.007h1.396c-1.248-1.229-2.943-1.877-5.013-1.881C5.582,2.22,2.105,5.724,2.084,10.189   C2.065,10.579,1.819,11.224,1.022,11.224z"
       id="path4"
       style="fill:#920000;fill-opacity:0.85844749" /><path
       fill="#FFFFFF"
       d="M10.002,20c-2.385,0-4.63-0.856-6.504-2.478v1.401c0,0.554-0.443,1.005-0.988,1.005   c-0.545,0-0.988-0.451-0.988-1.006v-4.021c0-0.561,0.362-0.938,0.9-0.938h3.941c0.545,0,0.989,0.452,0.989,1.007   c0,0.556-0.443,1.007-0.989,1.007H4.965c1.228,1.206,2.925,1.841,5.017,1.845c4.344-0.007,7.895-3.602,7.917-8.013   c0.02-0.39,0.268-1.034,1.068-1.034c0.307,0,0.555,0.092,0.734,0.273C19.998,9.349,20,9.791,20,9.81   C19.984,15.429,15.498,20,10.002,20z"
       id="path6"
       style="fill:#920000;fill-opacity:0.85844749" /></g></svg>