<?xml version="1.0" encoding="UTF-8" standalone="no"?>
<!-- Created with Inkscape (http://www.inkscape.org/) -->

<svg
   xmlns:dc="http://purl.org/dc/elements/1.1/"
   xmlns:cc="http://creativecommons.org/ns#"
   xmlns:rdf="http://www.w3.org/1999/02/22-rdf-syntax-ns#"
   xmlns:svg="http://www.w3.org/2000/svg"
   xmlns="http://www.w3.org/2000/svg"
   xmlns:sodipodi="http://sodipodi.sourceforge.net/DTD/sodipodi-0.dtd"
   xmlns:inkscape="http://www.inkscape.org/namespaces/inkscape"
   version="1.1"
   width="175"
   height="65"
   viewBox="0 0 175 65"
   id="svg2"
   xml:space="preserve"
   inkscape:version="0.48.4 r9939"
   sodipodi:docname="cloudify-logo.svg"><sodipodi:namedview
     pagecolor="#ffffff"
     bordercolor="#666666"
     borderopacity="1"
     objecttolerance="10"
     gridtolerance="10"
     guidetolerance="10"
     inkscape:pageopacity="0"
     inkscape:pageshadow="2"
     inkscape:window-width="1920"
     inkscape:window-height="1056"
     id="namedview30"
     showgrid="false"
     inkscape:zoom="1.6685714"
     inkscape:cx="-17.979452"
     inkscape:cy="32.5"
     inkscape:window-x="0"
     inkscape:window-y="24"
     inkscape:window-maximized="1"
     inkscape:current-layer="svg2" /><metadata
     id="metadata8"><rdf:RDF><cc:Work
         rdf:about=""><dc:format>image/svg+xml</dc:format><dc:type
           rdf:resource="http://purl.org/dc/dcmitype/StillImage" /><dc:title /></cc:Work></rdf:RDF></metadata><defs
     id="defs6"><clipPath
       id="clipPath16"><path
         d="m 0,79.333 200,0 L 200,0 0,0 0,79.333 z"
         id="path18" /></clipPath></defs><g
     transform="matrix(1.2500011,0,0,-1.25,-0.23571163,82.746242)"
     id="g10"
     style="fill:#ff8b90;fill-opacity:1"><g
       transform="matrix(0.76772112,0,0,0.76772112,-7.7693875,11.710202)"
       id="g12"
       style="fill:#ff8b90;fill-opacity:1"><g
         clip-path="url(#clipPath16)"
         id="g14"
         style="fill:#ff8b90;fill-opacity:1"><g
           transform="translate(38.5693,15.2236)"
           id="g20"
           style="fill:#ff8b90;fill-opacity:1"><path
             d="m 0,0 c -2.891,-1.094 -6.172,-1.641 -9.844,-1.641 -12.031,0 -18.047,5.821 -18.047,17.461 0,11.016 6.016,16.524 18.047,16.524 3.672,0 6.953,-0.547 9.844,-1.641 l 0,-5.625 c -2.891,1.25 -6.016,1.875 -9.375,1.875 -8.047,0 -12.07,-3.711 -12.07,-11.133 0,-8.047 4.023,-12.07 12.07,-12.07 3.359,0 6.484,0.625 9.375,1.875 L 0,0 z"
             id="path22"
             style="fill:#ff8b90;fill-opacity:1;fill-rule:nonzero;stroke:none" /></g><path
           d="m 50.054,13.817 -6.211,0 0,33.516 6.211,0 0,-33.516 z"
           id="path24"
           style="fill:#ff8b90;fill-opacity:1;fill-rule:nonzero;stroke:none" /><g
           transform="translate(66.9287,18.5049)"
           id="g26"
           style="fill:#ff8b90;fill-opacity:1"><path
             d="m 0,0 c 3.984,0 5.977,2.57 5.977,7.711 0,5.016 -1.993,7.523 -5.977,7.523 -3.984,0 -5.977,-2.507 -5.977,-7.523 C -5.977,2.57 -3.984,0 0,0 m -12.188,7.617 c 0,8.25 4.063,12.375 12.188,12.375 8.125,0 12.188,-4.125 12.188,-12.375 0,-8.234 -4.063,-12.351 -12.188,-12.351 -8.094,0 -12.156,4.117 -12.188,12.351"
             id="path28"
             style="fill:#ff8b90;fill-opacity:1;fill-rule:nonzero;stroke:none" /></g><g
           transform="translate(105.9531,38.4268)"
           id="g30"
           style="fill:#ff8b90;fill-opacity:1"><path
             d="m 0,0 0,-24.609 -4.853,0 -0.75,3.14 c -2.828,-2.093 -5.828,-3.14 -9,-3.14 -5.031,0 -7.546,2.976 -7.546,8.929 l 0,15.68 6.211,0 0,-15.516 c 0,-2.718 1.187,-4.078 3.562,-4.078 2.016,0 4.07,0.805 6.164,2.414 L -6.212,0 0,0 z"
             id="path32"
             style="fill:#ff8b90;fill-opacity:1;fill-rule:nonzero;stroke:none" /></g><g
           transform="translate(127.3984,32.0049)"
           id="g34"
           style="fill:#ff8b90;fill-opacity:1"><path
             d="m 0,0 c -1.281,0.844 -2.891,1.266 -4.828,1.266 -3.86,0 -5.789,-2.164 -5.789,-6.493 0,-5.14 2.008,-7.711 6.023,-7.711 1.625,0 3.157,0.227 4.594,0.68 L 0,0 z m 6.211,-16.711 c -3.766,-0.984 -7.445,-1.476 -11.039,-1.476 -7.953,0 -11.93,4.265 -11.93,12.796 0,7.875 3.891,11.813 11.672,11.813 1.656,0 3.352,-0.391 5.086,-1.172 l 0,10.078 6.211,0 0,-32.039 z"
             id="path36"
             style="fill:#ff8b90;fill-opacity:1;fill-rule:nonzero;stroke:none" /></g><path
           d="m 145.68,13.817 -6.211,0 0,24.609 6.211,0 0,-24.609 z m 0,28.594 -6.211,0 0,4.922 6.211,0 0,-4.922 z"
           id="path38"
           style="fill:#ff8b90;fill-opacity:1;fill-rule:nonzero;stroke:none" /><g
           transform="translate(151.5391,13.8174)"
           id="g40"
           style="fill:#ff8b90;fill-opacity:1"><path
             d="m 0,0 0,24.609 c 0,6.75 3.688,10.125 11.063,10.125 2.015,0 3.843,-0.312 5.484,-0.937 l 0,-4.922 C 15,29.5 13.32,29.812 11.508,29.812 c -3.531,0 -5.297,-1.734 -5.297,-5.203 l 7.383,0 0,-4.922 -7.383,0 L 6.211,0 0,0 z"
             id="path42"
             style="fill:#ff8b90;fill-opacity:1;fill-rule:nonzero;stroke:none" /></g><g
           transform="translate(167.0029,38.4268)"
           id="g44"
           style="fill:#ff8b90;fill-opacity:1"><path
             d="M 0,0 6.586,0 12.797,-17.719 18.867,0 25.336,0 15.117,-25.336 c -1.812,-4.469 -4.711,-7.648 -8.695,-9.539 l -3,4.242 c 2.75,1.203 4.75,3.164 6,5.883 L 0,0 z"
             id="path46"
             style="fill:#ff8b90;fill-opacity:1;fill-rule:nonzero;stroke:none" /></g><g
           transform="translate(88.1543,54.126)"
           id="g48"
           style="fill:#ff8b90;fill-opacity:1"><path
             d="m 0,0 c -0.963,0 -1.746,-0.778 -1.746,-1.741 0,-0.969 0.783,-1.748 1.746,-1.748 0.965,0 1.745,0.779 1.745,1.748 C 1.745,-0.778 0.965,0 0,0"
             id="path50"
             style="fill:#ff8b90;fill-opacity:1;fill-rule:evenodd;stroke:none" /></g><g
           transform="translate(101.2744,58.5156)"
           id="g52"
           style="fill:#ff8b90;fill-opacity:1"><path
             d="m 0,0 c -1.294,0 -2.343,-1.043 -2.343,-2.335 0,-1.299 1.049,-2.345 2.343,-2.345 1.295,0 2.337,1.046 2.337,2.345 C 2.337,-1.043 1.295,0 0,0"
             id="path54"
             style="fill:#ff8b90;fill-opacity:1;fill-rule:evenodd;stroke:none" /></g><g
           transform="translate(108.2979,55.5977)"
           id="g56"
           style="fill:#ff8b90;fill-opacity:1"><path
             d="m 0,0 c 0,-0.504 -0.359,-0.942 -0.854,-1.042 l -1.19,-0.239 c -0.044,-0.116 -0.092,-0.231 -0.145,-0.344 l 0.675,-1.009 c 0.281,-0.42 0.226,-0.983 -0.132,-1.34 l -0.82,-0.822 c -0.198,-0.196 -0.471,-0.309 -0.751,-0.309 -0.207,0 -0.415,0.062 -0.59,0.175 l -1.009,0.675 c -0.113,-0.053 -0.233,-0.101 -0.35,-0.144 L -5.399,-5.588 C -5.501,-6.081 -5.94,-6.441 -6.444,-6.441 l -1.16,0 c -0.502,0 -0.942,0.36 -1.038,0.856 l -0.241,1.189 c -0.118,0.04 -0.234,0.088 -0.347,0.141 l -1.01,-0.671 c -0.173,-0.117 -0.378,-0.179 -0.588,-0.179 -0.286,0 -0.55,0.11 -0.751,0.309 l -0.817,0.822 c -0.357,0.352 -0.416,0.916 -0.137,1.34 l 0.675,1.009 c -0.053,0.113 -0.098,0.228 -0.145,0.344 l -1.188,0.239 c -0.497,0.1 -0.856,0.538 -0.856,1.042 l 0,1.156 c 0,0.507 0.359,0.948 0.858,1.044 l 1.186,0.236 c 0.045,0.118 0.092,0.235 0.145,0.35 l -0.675,1.005 c -0.279,0.422 -0.223,0.989 0.137,1.344 l 0.817,0.819 c 0.201,0.199 0.468,0.314 0.751,0.314 0.21,0 0.415,-0.065 0.591,-0.183 L -9.23,5.414 c 0.113,0.051 0.229,0.1 0.347,0.143 l 0.241,1.189 C -8.546,7.24 -8.106,7.6 -7.604,7.6 l 1.16,0 c 0.504,0 0.943,-0.36 1.045,-0.854 l 0.233,-1.189 c 0.12,-0.043 0.237,-0.092 0.35,-0.143 l 1.007,0.671 c 0.18,0.118 0.385,0.183 0.592,0.183 0.278,0 0.551,-0.116 0.751,-0.317 l 0.82,-0.816 C -1.288,4.776 -1.233,4.21 -1.514,3.791 L -2.189,2.786 c 0.053,-0.115 0.101,-0.229 0.147,-0.35 L -0.854,2.2 C -0.359,2.104 0,1.663 0,1.156 L 0,0 z m -14.907,-3.647 c 0,-0.377 -0.268,-0.702 -0.635,-0.776 l -0.888,-0.179 c -0.033,-0.086 -0.069,-0.172 -0.106,-0.256 l 0.5,-0.754 c 0.211,-0.313 0.169,-0.733 -0.1,-0.999 l -0.609,-0.612 c -0.147,-0.147 -0.352,-0.231 -0.56,-0.231 -0.154,0 -0.308,0.046 -0.439,0.131 l -0.752,0.503 c -0.085,-0.039 -0.172,-0.076 -0.26,-0.107 l -0.176,-0.886 c -0.074,-0.368 -0.403,-0.637 -0.777,-0.637 l -0.864,0 c -0.377,0 -0.704,0.269 -0.776,0.638 l -0.178,0.887 c -0.087,0.029 -0.175,0.066 -0.262,0.105 l -0.751,-0.502 c -0.129,-0.086 -0.282,-0.132 -0.438,-0.132 -0.213,0 -0.412,0.082 -0.559,0.231 l -0.61,0.612 c -0.268,0.263 -0.311,0.683 -0.103,0.999 l 0.503,0.754 c -0.039,0.084 -0.073,0.17 -0.109,0.256 l -0.884,0.179 c -0.37,0.074 -0.638,0.399 -0.638,0.776 l 0,0.861 c 0,0.379 0.268,0.707 0.638,0.778 l 0.884,0.177 c 0.034,0.087 0.07,0.175 0.109,0.261 l -0.503,0.749 c -0.208,0.315 -0.165,0.737 0.103,1.001 l 0.61,0.611 c 0.147,0.147 0.348,0.233 0.559,0.233 0.155,0 0.309,-0.048 0.438,-0.136 l 0.751,-0.5 c 0.087,0.038 0.175,0.074 0.26,0.107 l 0.18,0.886 c 0.072,0.368 0.399,0.636 0.776,0.636 l 0.864,0 c 0.374,0 0.701,-0.268 0.777,-0.636 l 0.176,-0.886 c 0.09,-0.033 0.175,-0.069 0.26,-0.107 l 0.752,0.5 c 0.133,0.088 0.285,0.136 0.439,0.136 0.208,0 0.41,-0.086 0.56,-0.235 l 0.609,-0.609 c 0.269,-0.267 0.311,-0.689 0.1,-1.001 l -0.5,-0.749 c 0.037,-0.086 0.073,-0.171 0.106,-0.261 l 0.888,-0.177 c 0.367,-0.071 0.635,-0.399 0.635,-0.778 l 0,-0.861 z M 3.802,4.373 C 2.996,4.529 2.619,4.632 2.511,4.632 2.476,4.632 2.468,4.623 2.476,4.607 2.438,4.677 2.355,4.928 2.267,5.756 c -0.582,5.142 -5.607,9.016 -11.693,9.016 -4.571,0 -8.77,-2.272 -10.706,-5.789 l -0.142,-0.251 c -0.175,-0.329 -0.45,-0.827 -0.455,-0.881 -0.009,0 -0.18,0 -0.636,0.148 -0.732,0.252 -1.529,0.375 -2.503,0.375 -2.757,0 -4.995,-1.885 -4.995,-4.199 0,-0.367 0.078,-0.774 0.308,-1.367 0.352,-0.728 0.401,-1.034 0.445,-1.041 -0.093,-0.087 -0.382,-0.297 -1.286,-0.737 -2.517,-1.236 -4.023,-3.409 -4.023,-5.813 0,-3.731 3.602,-6.765 8.032,-6.765 l 27.352,0 0,0.003 c 5.264,0 9.552,3.608 9.552,8.042 0,3.845 -3.281,7.163 -7.715,7.876"
             id="path58"
             style="fill:#ff8b90;fill-opacity:1;fill-rule:evenodd;stroke:none" /></g></g></g></g></svg>