<?xml version="1.0" encoding="UTF-8" standalone="no"?>
<!-- Generator: Adobe Illustrator 16.0.0, SVG Export Plug-In . SVG Version: 6.00 Build 0)  -->

<svg
   xmlns:dc="http://purl.org/dc/elements/1.1/"
   xmlns:cc="http://creativecommons.org/ns#"
   xmlns:rdf="http://www.w3.org/1999/02/22-rdf-syntax-ns#"
   xmlns:svg="http://www.w3.org/2000/svg"
   xmlns="http://www.w3.org/2000/svg"
   xmlns:sodipodi="http://sodipodi.sourceforge.net/DTD/sodipodi-0.dtd"
   xmlns:inkscape="http://www.inkscape.org/namespaces/inkscape"
   version="1.1"
   id="Layer_1"
   x="0px"
   y="0px"
   width="18px"
   height="18px"
   viewBox="0 0 18 18"
   enable-background="new 0 0 18 18"
   xml:space="preserve"
   inkscape:version="0.48.4 r9939"
   sodipodi:docname="logout.svg"><metadata
     id="metadata11"><rdf:RDF><cc:Work
         rdf:about=""><dc:format>image/svg+xml</dc:format><dc:type
           rdf:resource="http://purl.org/dc/dcmitype/StillImage" /></cc:Work></rdf:RDF></metadata><defs
     id="defs9" /><sodipodi:namedview
     pagecolor="#ffffff"
     bordercolor="#666666"
     borderopacity="1"
     objecttolerance="10"
     gridtolerance="10"
     guidetolerance="10"
     inkscape:pageopacity="0"
     inkscape:pageshadow="2"
     inkscape:window-width="753"
     inkscape:window-height="480"
     id="namedview7"
     showgrid="false"
     inkscape:zoom="13.111111"
     inkscape:cx="9"
     inkscape:cy="9"
     inkscape:window-x="0"
     inkscape:window-y="24"
     inkscape:window-maximized="0"
     inkscape:current-layer="Layer_1" /><path
     fill="#CADBEC"
     d="M9.738,0.747C9.741,0.336,9.416,0.003,9.007,0c-0.41-0.005-0.742,0.323-0.745,0.732l0,6.579  C8.258,7.723,8.583,8.055,8.992,8.058c0.41,0.006,0.743-0.323,0.746-0.732L9.738,0.747z"
     id="path3"
     style="fill:#ff8b90;fill-opacity:1" /><path
     fill-rule="evenodd"
     clip-rule="evenodd"
     fill="#CADBEC"
     d="M12.598,1.692c-0.014-0.006-0.178-0.037-0.252-0.037  c-0.387,0-0.701,0.314-0.701,0.701c0,0.287,0.174,0.533,0.422,0.641c0,0.001-0.002,0.005-0.002,0.005  c2.61,1.11,4.432,3.579,4.432,6.448c0,3.899-3.359,7.07-7.496,7.08c-4.137-0.01-7.496-3.181-7.496-7.08  c0-2.869,1.821-5.337,4.431-6.448c0,0-0.001-0.004-0.001-0.005c0.247-0.108,0.421-0.354,0.421-0.641  c0-0.387-0.314-0.701-0.701-0.701c-0.074,0-0.238,0.031-0.252,0.037C2.178,3.047,0,6.008,0,9.45c0,4.677,4.031,8.48,8.991,8.496  v0.001c0.001,0,0.002,0,0.004,0l0,0C8.997,17.946,8.998,17.946,9,17.946s0.003,0,0.005,0.001l0,0c0.001,0,0.003,0,0.004,0v-0.001  C13.969,17.931,18,14.127,18,9.45C18,6.008,15.821,3.047,12.598,1.692z"
     id="path5"
     style="fill:#ff8b90;fill-opacity:1" /></svg>