<?xml version="1.0" encoding="UTF-8" standalone="no"?>
<!-- Generator: Adobe Illustrator 16.0.0, SVG Export Plug-In . SVG Version: 6.00 Build 0)  -->

<svg
   xmlns:dc="http://purl.org/dc/elements/1.1/"
   xmlns:cc="http://creativecommons.org/ns#"
   xmlns:rdf="http://www.w3.org/1999/02/22-rdf-syntax-ns#"
   xmlns:svg="http://www.w3.org/2000/svg"
   xmlns="http://www.w3.org/2000/svg"
   xmlns:sodipodi="http://sodipodi.sourceforge.net/DTD/sodipodi-0.dtd"
   xmlns:inkscape="http://www.inkscape.org/namespaces/inkscape"
   version="1.1"
   id="Layer_1"
   x="0px"
   y="0px"
   width="20px"
   height="20px"
   viewBox="0 0 20 20"
   enable-background="new 0 0 20 20"
   xml:space="preserve"
   inkscape:version="0.48.4 r9939"
   sodipodi:docname="search.svg"><metadata
     id="metadata12"><rdf:RDF><cc:Work
         rdf:about=""><dc:format>image/svg+xml</dc:format><dc:type
           rdf:resource="http://purl.org/dc/dcmitype/StillImage" /></cc:Work></rdf:RDF></metadata><defs
     id="defs10" /><sodipodi:namedview
     pagecolor="#ffffff"
     bordercolor="#666666"
     borderopacity="1"
     objecttolerance="10"
     gridtolerance="10"
     guidetolerance="10"
     inkscape:pageopacity="0"
     inkscape:pageshadow="2"
     inkscape:window-width="753"
     inkscape:window-height="480"
     id="namedview8"
     showgrid="false"
     inkscape:zoom="11.8"
     inkscape:cx="10"
     inkscape:cy="10"
     inkscape:window-x="0"
     inkscape:window-y="24"
     inkscape:window-maximized="0"
     inkscape:current-layer="Layer_1" /><g
     id="search_1_"
     style="fill:#ff8b90;fill-opacity:1;stroke:#5c0000;stroke-opacity:1"><path
       fill="none"
       stroke="#2C4A67"
       stroke-miterlimit="10"
       d="M12.375,0.5C8.44,0.5,5.25,3.69,5.25,7.625   c0,1.203,0.301,2.334,0.828,3.329l-4.954,4.954L1.047,16C0.661,16.381,0.5,16.819,0.5,17.404c0,1.158,0.938,2.096,2.095,2.096   c0.585,0,1.113-0.241,1.493-0.628l-0.001-0.001l4.953-4.952c0.995,0.528,2.129,0.831,3.335,0.831c3.935,0,7.125-3.189,7.125-7.125   C19.5,3.69,16.31,0.5,12.375,0.5z"
       id="path4"
       style="fill:#ff8b90;fill-opacity:1;stroke:#5c0000;stroke-opacity:1" /><circle
       fill="none"
       stroke="#2C4A67"
       stroke-miterlimit="10"
       cx="12.334"
       cy="7.506"
       r="5.225"
       id="circle6"
       style="fill:#ff8b90;fill-opacity:1;stroke:#5c0000;stroke-opacity:1" /></g></svg>