<?xml version="1.0" encoding="UTF-8" standalone="no"?>
<!-- Generator: Adobe Illustrator 16.0.0, SVG Export Plug-In . SVG Version: 6.00 Build 0)  -->

<svg
   xmlns:dc="http://purl.org/dc/elements/1.1/"
   xmlns:cc="http://creativecommons.org/ns#"
   xmlns:rdf="http://www.w3.org/1999/02/22-rdf-syntax-ns#"
   xmlns:svg="http://www.w3.org/2000/svg"
   xmlns="http://www.w3.org/2000/svg"
   xmlns:sodipodi="http://sodipodi.sourceforge.net/DTD/sodipodi-0.dtd"
   xmlns:inkscape="http://www.inkscape.org/namespaces/inkscape"
   version="1.1"
   id="Layer_1"
   x="0px"
   y="0px"
   width="18px"
   height="18px"
   viewBox="0 0 18 18"
   enable-background="new 0 0 18 18"
   xml:space="preserve"
   inkscape:version="0.48.4 r9939"
   sodipodi:docname="user.svg"><metadata
     id="metadata8"><rdf:RDF><cc:Work
         rdf:about=""><dc:format>image/svg+xml</dc:format><dc:type
           rdf:resource="http://purl.org/dc/dcmitype/StillImage" /></cc:Work></rdf:RDF></metadata><defs
     id="defs6" /><sodipodi:namedview
     pagecolor="#ffffff"
     bordercolor="#666666"
     borderopacity="1"
     objecttolerance="10"
     gridtolerance="10"
     guidetolerance="10"
     inkscape:pageopacity="0"
     inkscape:pageshadow="2"
     inkscape:window-width="753"
     inkscape:window-height="480"
     id="namedview4"
     showgrid="false"
     inkscape:zoom="13.111111"
     inkscape:cx="9"
     inkscape:cy="9"
     inkscape:window-x="0"
     inkscape:window-y="24"
     inkscape:window-maximized="0"
     inkscape:current-layer="Layer_1" /><path
     id="usericon_1_"
     fill="#CADBEC"
     d="M17.498,15.939c-0.112-0.075-2.163-1.422-5.215-2.08c1.119-1.42,1.838-3.327,2.144-4.596  c0.423-1.76,0.259-5.202-1.431-7.347C12.009,0.663,10.627,0,9,0C7.374,0,5.991,0.663,5.004,1.916  C3.314,4.061,3.15,7.503,3.573,9.263c0.306,1.269,1.024,3.176,2.144,4.596c-3.051,0.658-5.103,2.005-5.215,2.08  c-0.413,0.274-0.597,0.787-0.453,1.261C0.192,17.675,0.63,18,1.125,18h15.749c0.496,0,0.934-0.325,1.077-0.8  C18.095,16.727,17.911,16.214,17.498,15.939z"
     style="fill:#ff8b90;fill-opacity:1" /></svg>