<?xml version="1.0" encoding="utf-8"?>
<!-- Generator: Adobe Illustrator 16.0.0, SVG Export Plug-In . SVG Version: 6.00 Build 0)  -->
<!DOCTYPE svg PUBLIC "-//W3C//DTD SVG 1.1//EN" "http://www.w3.org/Graphics/SVG/1.1/DTD/svg11.dtd">
<svg version="1.1" id="Layer_1" xmlns="http://www.w3.org/2000/svg" xmlns:xlink="http://www.w3.org/1999/xlink" x="0px" y="0px"
	 width="32px" height="32px" viewBox="0 0 1000 1000" enable-background="new 0 0 1000 1000" xml:space="preserve">
<g>
	<g>
		<path fill="#F9B71B" d="M925.484,142.764H702.16v-24.868c0-4.166-3.385-7.552-7.551-7.552h-54.979V22.72
			c0-12.564-10.154-22.72-22.719-22.72H383.121c-12.531,0-22.688,10.155-22.688,22.785v87.559h-55.008
			c-4.168,0-7.553,3.386-7.553,7.552v24.934H74.516c-41.208,0-74.475,33.266-74.475,74.475v708.157
			c0,41.143,33.267,74.539,74.475,74.539h850.969c41.078,0,74.475-33.396,74.475-74.604V217.239
			C999.959,176.095,966.562,142.764,925.484,142.764z M933.623,907.885c0,13.67-11.197,24.803-24.869,24.803l-815.555,0.064
			c-13.736,0-24.738-11.197-24.738-24.867V236.183c0-13.736,11.002-24.868,24.738-24.868h204.674v64.384
			c0,4.166,3.385,7.551,7.553,7.551h389.184c4.166,0,7.551-3.385,7.551-7.551V211.25h206.594c13.672,0,24.869,11.197,24.869,24.803
			V907.885z"/>
	</g>
	<g>
		<path fill="#F9B71B" d="M499.992,748.584c-25.877,0-46.871,21.027-46.871,46.873c0,25.91,20.994,46.871,46.871,46.871
			s46.871-20.961,46.871-46.871C546.863,769.611,525.869,748.584,499.992,748.584z"/>
		<path fill="#F9B71B" d="M499.83,702.363v0.066c0.064,0,0.098-0.033,0.162-0.033s0.098,0.033,0.162,0.033v-0.066
			c25.471-0.357,42.674-17.836,46.189-46.742c0.098-0.877,22.914-239.34,22.914-239.34c0-18.422-14.939-33.33-33.33-33.33h-35.773
			h-0.324h-35.773c-18.391,0-33.33,14.908-33.33,33.33c0,0,22.801,238.463,22.914,239.34
			C457.156,684.527,474.359,702.006,499.83,702.363z"/>
	</g>
</g>
</svg>
